<?xml version="1.0" encoding="utf-8"?>
<svg viewBox="1.008 0.499 359.268 359.268" xmlns="http://www.w3.org/2000/svg">
  <ellipse style="stroke: rgb(0, 0, 0); stroke-opacity: 0; stroke-width: 0px; fill: rgb(135, 129, 160);" cx="180.642" cy="180.133" rx="179.634" ry="179.634"/>
  <path d="M 332.714 100.556 C 331.735 98.202 329.695 96.426 327.19 95.745 C 324.684 95.066 321.998 95.561 319.918 97.085 C 305.038 107.978 278.312 115.571 246.915 119.875 L 232.64 97.468 C 231.109 95.066 228.418 93.606 225.523 93.606 C 222.628 93.606 219.937 95.066 218.408 97.468 L 213.429 105.281 L 213.641 104.872 L 188.49 65.395 C 186.958 62.993 184.268 61.533 181.373 61.533 C 178.478 61.533 175.787 62.993 174.257 65.395 L 149.105 104.872 L 149.317 105.281 L 144.34 97.468 C 142.808 95.066 140.118 93.606 137.223 93.606 C 134.328 93.606 131.637 95.066 130.107 97.468 L 115.831 119.875 C 84.434 115.57 57.708 107.978 42.829 97.085 C 40.748 95.562 38.063 95.068 35.558 95.748 C 33.054 96.427 31.009 98.203 30.031 100.556 C 17.047 131.785 -8.018 220.729 121.707 231.627 C 134.825 232.73 150.185 230.867 163.063 225.092 C 174.671 219.886 188.062 219.88 199.672 225.088 C 212.55 230.866 227.914 232.73 241.036 231.627 C 370.763 220.729 345.698 131.784 332.714 100.556 Z M 142.283 184.324 C 141.435 186.041 139.914 187.35 138.064 187.956 C 129.898 190.63 115.051 194.339 102.109 191.364 C 78.971 186.041 73.382 170.127 72.093 161.269 C 71.574 157.715 73.868 154.339 77.424 153.437 C 84.38 151.67 96.811 149.57 109.375 152.629 C 131.432 158.002 139.579 170.836 142.562 178.836 C 143.23 180.627 143.13 182.607 142.283 184.324 Z M 290.655 161.268 C 289.365 170.127 283.775 186.041 260.638 191.363 C 247.696 194.338 232.849 190.63 224.684 187.955 C 222.833 187.349 221.312 186.041 220.464 184.323 C 219.617 182.604 219.516 180.626 220.184 178.835 C 223.168 170.836 231.314 158.001 253.372 152.628 C 265.935 149.568 278.367 151.669 285.323 153.436 C 288.879 154.339 291.173 157.713 290.655 161.268 Z" style=""/>
</svg>